<svg id="Capa_1" enable-background="new 0 0 512 512" height="512" viewBox="0 0 512 512" width="512" xmlns="http://www.w3.org/2000/svg"><g><path d="m271 45v-30c0-8.284-6.716-15-15-15s-15 6.716-15 15v30c0 8.284 6.716 15 15 15s15-6.716 15-15z"/><path d="m148.232 83.892c7.509-3.501 10.757-12.426 7.256-19.934l-12.678-27.19c-3.501-7.508-12.429-10.757-19.934-7.255-7.509 3.501-10.757 12.426-7.256 19.934l12.679 27.189c3.518 7.545 12.462 10.74 19.933 7.256z"/><path d="m58.81 130.957-22.981-19.284c-6.348-5.326-15.809-4.497-21.132 1.849-5.325 6.346-4.498 15.807 1.849 21.132l22.981 19.284c6.321 5.304 15.787 4.523 21.132-1.849 5.324-6.346 4.497-15.807-1.849-21.132z"/><path d="m383.701 76.636 12.679-27.189c3.501-7.508.253-16.433-7.256-19.934-7.504-3.5-16.433-.253-19.934 7.255l-12.679 27.189c-3.501 7.508-.253 16.433 7.256 19.934 7.46 3.48 16.411.3 19.934-7.255z"/><path d="m497.304 113.522c-5.324-6.346-14.787-7.174-21.132-1.849l-22.981 19.284c-6.347 5.325-7.174 14.787-1.849 21.132 5.309 6.327 14.768 7.19 21.132 1.849l22.981-19.284c6.347-5.325 7.174-14.786 1.849-21.132z"/><path d="m106.061 151c-.103.027-7.994-.29-12.625 6.805-8.187 12.281-51.476 77.214-59.917 89.875-3.77 5.654-3.2 13.172 1.172 18.175l210 241c2.849 3.269 6.973 5.145 11.309 5.145s8.46-1.876 11.309-5.146l210-241c4.293-4.9 5.008-12.424 1.172-18.175l-59.917-89.875c-2.814-4.296-7.591-6.804-12.564-6.804 0 0-299.929 0-299.939 0zm331.911 90h-63.945l31.973-47.959zm-235.759 0 53.787-53.787 53.787 53.787zm122.142 30-68.355 182.28-68.355-182.28zm-110.851 154.398-134.537-154.398h76.638zm142.891-154.398h76.638l-134.537 154.398zm-12.726-38.544-51.456-51.456h85.76zm-175.338 0-34.304-51.456h85.76zm-30.358 8.544h-63.945l31.972-47.959z"/></g></svg>